<?xml version="1.0" encoding="utf-8"?>
<!-- Generator: Adobe Illustrator 22.0.1, SVG Export Plug-In . SVG Version: 6.00 Build 0)  -->
<!-- <svg version="1.1" id="圖層_1" focusable="false" xmlns="http://www.w3.org/2000/svg" xmlns:xlink="http://www.w3.org/1999/xlink"
	 x="0px" y="0px" width="512px" height="512px" viewBox="0 0 512 512" style="enable-background:new 0 0 512 512;"
	 xml:space="preserve">
<style type="text/css">
	.st0{fill:#BFA093;}
</style>
<path class="st0" d="M486.9,255.9c-63.5-0.7-114.8-52.4-114.8-115.9c-63.6,0-115.1-51.3-116-114.6c-24.7-3.7-50,0.2-72.3,11.6
	l-62.6,31.9c-22.6,11.5-40.9,29.9-52.4,52.4L37,183.7c-11.5,22.7-15.6,48.3-11.6,73.4l11,69.2c4,25.1,15.8,48.3,33.7,66.2l49.7,49.7
	c17.9,17.9,41,29.6,66,33.6l69.5,11c25,4,50.5-0.1,73-11.6l62.6-31.9c22.6-11.5,40.9-29.9,52.4-52.4l31.9-62.5
	C486.5,306,490.6,280.6,486.9,255.9L486.9,255.9z M183.5,357.6c-16.1,0-29-13-29-29s13-29,29-29s29,13,29,29
	C212.4,344.7,199.5,357.6,183.5,357.6z M212.4,212.5c-16.1,0-29-13-29-29s13-29,29-29s29,13,29,29S228.4,212.5,212.4,212.5z
	 M357.5,328.6c-16.1,0-29-13-29-29s13-29,29-29s29,13,29,29S373.6,328.6,357.5,328.6z"/>
</svg> -->
<svg aria-hidden="true" focusable="false" data-prefix="fas" data-icon="tshirt" class="svg-inline--fa fa-tshirt fa-w-20" role="img" 
xmlns="http://www.w3.org/2000/svg" viewBox="0 0 640 512">
<path fill="currentColor" d="M631.2 96.5L436.5 0C416.4 27.8 371.9 47.2 320 47.2S223.6 27.8 203.5 
0L8.8 96.5c-7.9 4-11.1 13.6-7.2 21.5l57.2 
114.5c4 7.9 13.6 11.1 21.5 7.2l56.6-27.7c10.6-5.2 23 2.5 23 14.4V480c0 17.7 14.3 32 32 32h256c17.7 0 
32-14.3 32-32V226.3c0-11.8 12.4-19.6 23-14.4l56.6 27.7c7.9 4 17.5.8 21.5-7.2L638.3 
118c4-7.9.8-17.6-7.1-21.5z"></path></svg>